<?xml version="1.0" standalone="no"?>
<!DOCTYPE svg PUBLIC "-//W3C//DTD SVG 20010904//EN"
 "http://www.w3.org/TR/2001/REC-SVG-20010904/DTD/svg10.dtd">
<svg version="1.0" xmlns="http://www.w3.org/2000/svg"
 width="413.000000pt" height="413.000000pt" viewBox="0 0 413.000000 413.000000"
 preserveAspectRatio="xMidYMid meet">
<metadata>
Created by potrace 1.14, written by Peter Selinger 2001-2017
</metadata>
<g transform="translate(0.000000,413.000000) scale(0.100000,-0.100000)"
fill="#000000" stroke="none">
<path d="M2340 3770 c0 -226 -3 -277 -25 -411 -14 -84 -27 -154 -29 -156 -1
-2 -17 17 -35 42 -18 25 -36 43 -40 41 -4 -3 -16 -43 -25 -90 -17 -78 -20 -84
-46 -89 -15 -4 -44 -22 -64 -41 -37 -34 -37 -35 -20 -61 14 -22 23 -26 51 -23
18 2 33 1 33 -2 0 -11 -24 -30 -39 -30 -8 0 -32 -16 -52 -36 -36 -35 -37 -38
-22 -60 10 -16 25 -24 44 -24 19 0 29 -5 29 -15 0 -9 -9 -15 -23 -15 -13 0
-28 -5 -35 -12 -9 -9 -17 -7 -33 10 -11 12 -24 20 -29 17 -5 -3 -11 -1 -15 5
-4 7 -12 7 -24 0 -10 -5 -20 -7 -23 -5 -3 3 -4 -7 -3 -23 2 -32 32 -82 50 -82
6 0 20 -9 30 -20 14 -16 26 -19 47 -15 44 10 32 -28 -12 -40 -14 -3 -41 -20
-59 -36 -31 -26 -34 -32 -25 -56 8 -24 15 -28 47 -28 44 0 51 -23 9 -31 -16
-3 -45 -21 -66 -40 -36 -33 -37 -34 -20 -60 14 -21 24 -25 51 -22 26 3 32 1
29 -12 -3 -8 -17 -72 -32 -142 l-28 -127 -38 -6 c-21 -4 -38 -10 -38 -15 0 -4
-11 -11 -25 -14 -14 -4 -25 -13 -25 -20 0 -8 -6 -17 -12 -19 -10 -4 -10 -6 0
-6 6 -1 12 -6 12 -12 0 -18 27 -39 59 -45 17 -4 31 -12 31 -18 -1 -6 -36 -166
-79 -356 l-78 -345 -39 0 c-21 0 -43 -3 -49 -6 -5 -3 -23 -9 -38 -13 -16 -4
-27 -12 -25 -19 6 -17 72 -49 76 -37 2 6 8 8 13 4 5 -3 9 -1 9 4 0 5 12 8 28
6 15 -1 34 -2 43 -3 8 -1 25 -10 38 -22 19 -18 21 -27 16 -71 -4 -28 -16 -71
-27 -97 -11 -25 -20 -55 -21 -66 0 -11 -6 -27 -13 -35 -16 -20 -35 -67 -40
-105 -3 -16 -18 -76 -34 -131 -17 -56 -30 -115 -30 -132 0 -17 -15 -59 -33
-94 -56 -109 -43 -164 44 -177 54 -9 69 -5 69 17 0 10 7 26 15 36 8 10 11 24
7 30 -3 6 -7 17 -9 25 -1 8 -5 26 -9 40 -10 36 -6 49 27 97 16 24 29 53 29 66
0 13 9 41 19 62 11 21 21 52 22 69 2 18 9 41 16 52 6 11 14 31 17 45 5 31 26
77 48 110 9 14 18 36 20 50 5 36 50 108 70 113 10 3 36 0 59 -6 37 -9 44 -8
56 9 7 10 11 24 9 31 -3 7 -1 13 3 13 5 0 7 9 4 20 -3 11 -9 18 -13 15 -4 -2
-21 11 -39 30 -24 26 -30 42 -27 62 3 14 9 29 14 32 15 9 569 1684 596 1803
18 75 28 153 32 255 7 145 6 151 -26 273 -28 108 -41 141 -99 238 -66 110 -70
113 -149 161 l-81 50 -1 -259z"/>
</g>
</svg>
